<svg xmlns="http://www.w3.org/2000/svg" width="113.031" height="23.16" viewBox="0 0 113.031 23.16">
  <defs>
    <style>
      .cls-1 {
        fill: #171717;
        fill-rule: evenodd;
      }
    </style>
  </defs>
  <path class="cls-1" d="M149.049,1489.6c-6.122-1.35-10.717,3.27-9.344,9.42a6.78,6.78,0,0,0,5.106,5.14c6.1,1.39,10.7-3.24,9.347-9.41A6.772,6.772,0,0,0,149.049,1489.6Zm-2.107,12.46a5.193,5.193,0,0,1,0-10.37c2.876,0,4.884,2.13,4.884,5.18S149.817,1502.06,146.942,1502.06Zm18.78-12.7a6.441,6.441,0,0,0-5.017,2.04v-1.93h-2.464l0,14.8h2.544v-7.75c0-2.99,1.715-4.78,4.589-4.78,2.549,0,3.9,1.45,3.9,4.19v8.34h2.544v-8.53C171.814,1491.75,169.536,1489.36,165.722,1489.36Zm17.987,0a6.487,6.487,0,0,0-5.1,2.23v-2.12h-2.463l0,20.02H178.7v-7.24a6.485,6.485,0,0,0,5.017,2.16A7.528,7.528,0,0,0,183.709,1489.36Zm-0.131,12.7a5.2,5.2,0,0,1,0-10.38,4.889,4.889,0,0,1,4.911,5.19A4.839,4.839,0,0,1,183.578,1502.06Zm36.166-12.58,0,14.8h2.544l0-14.8h-2.544Zm14.838-.11a6.444,6.444,0,0,0-5.017,2.04v-1.93H227.1l0,14.8h2.543v-7.75c0-3,1.715-4.79,4.589-4.79,2.549,0,3.9,1.45,3.9,4.19v8.35h2.544v-8.53C240.674,1491.75,238.4,1489.37,234.582,1489.37Zm16.969,11.69-0.318.29a2.754,2.754,0,0,1-1.855.64c-1.39,0-2.095-.75-2.095-2.24v-8.08h4.251v-2.26h-4.251v-3.07h-2.534v13.52c0,2.81,1.61,4.42,4.416,4.42a4.778,4.778,0,0,0,3.166-1.08l0.183-.16Zm-46.511-14.31a10.19,10.19,0,1,0,10.1,10.17A9.82,9.82,0,0,0,205.04,1486.75Zm4.6,14.8-9.286.01a1.307,1.307,0,0,1-1.3-1.31v-6.57a1.355,1.355,0,0,1,1.348-1.36h9.238a1.355,1.355,0,0,1,1.348,1.36v6.52A1.346,1.346,0,0,1,209.642,1501.55Z" transform="translate(-139.469 -1486.34)"/>
</svg>
